<svg width="144" height="130" viewBox="0 0 144 130" fill="none" xmlns="http://www.w3.org/2000/svg">
<mask id="mask0_6_3" style="mask-type:luminance" maskUnits="userSpaceOnUse" x="0" y="0" width="144" height="130">
<path d="M0 130V0H144V130H0Z" fill="white"/>
</mask>
<g mask="url(#mask0_6_3)">
<path fill-rule="evenodd" clip-rule="evenodd" d="M144 64.9594C144 100.88 111.734 130 71.9324 130C32.1309 130 -0.135132 100.88 -0.135132 64.9594C-0.135132 29.0386 32.1309 -0.0812988 71.9324 -0.0812988C111.734 -0.0812988 144 29.0386 144 64.9594Z" fill="#DEDECA"/>
</g>
<path fill-rule="evenodd" clip-rule="evenodd" d="M41.1596 103.047C34.8807 103.045 29.2594 101.63 26.8902 99.4919C33.6465 95.4472 35.2973 89.7683 37.0134 85.2337C37.903 82.874 39.0966 80.6931 41.2767 78.7256C44.3193 75.9797 48.774 74.4268 53.0778 74.4268C53.5867 74.4268 54.0935 74.4492 54.5957 74.4939C56.0168 70.7073 59.8363 65.7134 67.4079 58.8801C81.2066 46.4268 102.737 32.1138 110.185 32.1138C111.045 32.1138 111.716 32.3049 112.166 32.7114C116.522 36.6423 98.5636 59.2175 83.1727 73.1077C75.5831 79.9573 70.0407 83.4065 65.8427 84.6809C66.1517 87.7697 65.426 90.8711 63.7595 93.5833C63.0641 94.7218 62.197 95.7677 61.1831 96.6911C56.1249 101.256 48.2245 103.047 41.1596 103.047Z" fill="#B3B2A4"/>
<path fill-rule="evenodd" clip-rule="evenodd" d="M67.4079 54.8151C52.017 68.7053 52.0778 75.0203 56.4312 78.9492C60.7845 82.8781 67.7818 82.9329 83.1727 69.0427C98.5637 55.1524 116.52 32.5772 112.166 28.6484C107.813 24.7195 82.7989 40.9248 67.4079 54.8151Z" fill="#D5915B"/>
<path fill-rule="evenodd" clip-rule="evenodd" d="M26.8902 95.4268C31.9259 99.9716 51.6274 101.248 61.1831 92.626C62.197 91.7026 63.0641 90.6567 63.7595 89.5183C48.8123 89.1159 40.9118 84.624 37.0134 81.1687C35.2973 85.7033 33.6465 91.3821 26.8902 95.4268Z" fill="#B85756"/>
<path fill-rule="evenodd" clip-rule="evenodd" d="M62.3767 73.5833C56.8816 68.6219 46.7741 69.6992 41.2767 74.6606C39.0967 76.628 37.903 78.8089 37.0135 81.1687C40.9119 84.624 48.5668 95.2785 63.7595 89.5183C66.89 84.4512 66.8652 77.6321 62.3767 73.5833Z" fill="#4C5665"/>
<path fill-rule="evenodd" clip-rule="evenodd" d="M37.0135 81.1687C37.0135 81.1687 46.0692 79.6158 50.3865 85.3536C54.7038 91.0915 63.7595 89.5183 63.7595 89.5183L52.0395 95.3618L40.3083 87.6565L37.0135 81.1687Z" fill="#B85756"/>
</svg>
